<svg xmlns="http://www.w3.org/2000/svg" width="96.917" height="75.922" viewBox="0 0 96.917 75.922">
              <g id="parking" transform="translate(-16 -95.984)">
                <path id="Path_128" data-name="Path 128" d="M111.393,154.142l-1.536-6.317c-.008-.034-.017-.067-.028-.1a15.628,15.628,0,0,0-8.219-9.5V121.715a12.917,12.917,0,1,0-3.231,0v15.31a19.723,19.723,0,0,0-5.094-.657H93l-5.139-12.335a11.785,11.785,0,0,0-11.042-7.049H49.927a16.955,16.955,0,0,0-15.206,9.021l-5.389,10.777a14.485,14.485,0,0,0-11.617,12.409l-.774,5.093A1.614,1.614,0,0,0,16,155.753v6.461a1.615,1.615,0,0,0,1.615,1.615H30.226a9.682,9.682,0,0,0,16.776,0H78.685a9.683,9.683,0,0,0,16.776,0H111.3a1.615,1.615,0,0,0,1.615-1.615v-6.461A1.614,1.614,0,0,0,111.393,154.142Zm-3.326,0h-4.842v-3.231h4.056ZM90.3,108.9a9.686,9.686,0,1,1,9.686,9.686A9.686,9.686,0,0,1,90.3,108.9Zm-27.46,11.313H76.814a8.68,8.68,0,0,1,8.06,5.061L89.5,136.369H62.843ZM37.61,127.451a13.7,13.7,0,0,1,12.317-7.235h9.686v16.153H33.151ZM29.059,160.6H19.231v-3.231h9.829a9.584,9.584,0,0,0,0,3.231Zm9.555,4.846a6.461,6.461,0,1,1,6.461-6.461A6.461,6.461,0,0,1,38.614,165.444Zm38.9-4.846H48.169a9.584,9.584,0,0,0,0-3.231H77.518a9.584,9.584,0,0,0,0,3.231Zm9.555,4.846a6.461,6.461,0,1,1,6.461-6.461A6.461,6.461,0,0,1,87.073,165.444Zm0-16.153a9.7,9.7,0,0,0-8.388,4.846H47a9.682,9.682,0,0,0-16.776,0H20.232l.681-4.48c0-.014,0-.028.006-.042.737-5.9,5.779-10.015,12.26-10.015H93.285a15.975,15.975,0,0,1,6.1,1.159,12.552,12.552,0,0,1,7,6.918H101.61a1.615,1.615,0,0,0-1.615,1.615v4.846H95.461A9.7,9.7,0,0,0,87.073,149.291ZM109.687,160.6H96.627a9.585,9.585,0,0,0,0-3.231h13.059Z" transform="translate(0 0)"  />
                <path id="Path_129" data-name="Path 129" d="M17.615,456a1.615,1.615,0,1,0,0,3.231H111.3a1.615,1.615,0,1,0,0-3.231Z" transform="translate(0 -287.325)"  />
                <path id="Path_130" data-name="Path 130" d="M412.91,134.455a6.455,6.455,0,1,0-6.455,6.455A6.456,6.456,0,0,0,412.91,134.455Zm-9.68,0a3.225,3.225,0,1,1,3.225,3.225,3.225,3.225,0,0,1-3.225-3.225Z" transform="translate(-306.466 -25.551)" />
                <path id="Path_131" data-name="Path 131" d="M252.846,328h-3.231a1.615,1.615,0,1,0,0,3.231h3.231a1.615,1.615,0,1,0,0-3.231Z" transform="translate(-185.157 -185.17)" />
              </g>
            </svg>