<svg xmlns="http://www.w3.org/2000/svg" width="83.854" height="83.854" viewBox="0 0 83.854 83.854">
  <g id="_011-no-smoking" data-name="011-no-smoking" transform="translate(-0.001 0)">
    <path id="Path_90" data-name="Path 90" d="M252.721,150.277a1.64,1.64,0,1,1,0-3.275h0a1.64,1.64,0,0,1,0,3.275Zm0,0" transform="translate(-209.967 -122.926)"/>
    <path id="Path_91" data-name="Path 91" d="M71.573,12.279a41.927,41.927,0,1,0,0,59.294,41.927,41.927,0,0,0,0-59.294Zm-2.316,56.98a38.651,38.651,0,1,1,0-54.661,38.651,38.651,0,0,1,0,54.661Zm0,0" transform="translate(0.001 0)"/>
    <path id="Path_92" data-name="Path 92" d="M147.467,50a33.4,33.4,0,0,0-20.62,7.035,1.636,1.636,0,0,0-.154,2.453l45.025,45.025a1.64,1.64,0,0,0,1.156.48h.107a1.64,1.64,0,0,0,1.19-.634,33.4,33.4,0,0,0,7.035-20.62A33.778,33.778,0,0,0,147.468,50Zm4.83,30.464h18.1v6.551h-11.56Zm20.38,20.381L162.128,90.29h9.908a1.64,1.64,0,0,0,1.64-1.64V78.8a1.64,1.64,0,0,0-1.64-1.64H149.026L130.367,58.5a30.151,30.151,0,0,1,17.126-5.249,30.5,30.5,0,0,1,30.464,30.464A30.151,30.151,0,0,1,172.678,100.844Zm0,0" transform="translate(-105.54 -41.81)"/>
    <path id="Path_93" data-name="Path 93" d="M104.514,171.719l-45.03-45.025a1.636,1.636,0,0,0-2.453.154A33.4,33.4,0,0,0,50,147.467a33.778,33.778,0,0,0,33.739,33.739,33.4,33.4,0,0,0,20.62-7.035,1.636,1.636,0,0,0,.154-2.453ZM72.273,144.111l6.632,6.632H72.265Zm11.466,33.825a30.5,30.5,0,0,1-30.464-30.464,30.151,30.151,0,0,1,5.249-17.126L69.079,140.9H59.167a1.64,1.64,0,0,0-1.64,1.64v9.848a1.64,1.64,0,0,0,1.64,1.64H82.177l18.659,18.659a30.152,30.152,0,0,1-17.1,5.245ZM69,144.2v6.551H60.807V144.2Zm0,0" transform="translate(-41.812 -105.542)"/>
    <path id="Path_94" data-name="Path 94" d="M329.784,123.381a1.64,1.64,0,0,1-1.636-1.541,5.138,5.138,0,0,0-3.853-4.41,8.1,8.1,0,0,1-5.434-5.052,11.94,11.94,0,0,1-.856-3.661,1.637,1.637,0,1,1,3.271-.154c0,.205.3,4.74,3.854,5.7a8.413,8.413,0,0,1,6.285,7.382,1.64,1.64,0,0,1-1.541,1.713Zm0,0" transform="translate(-265.913 -89.479)"/>
    <path id="Path_95" data-name="Path 95" d="M295.663,160.161a1.64,1.64,0,0,1-1.636-1.541,5.138,5.138,0,0,0-3.853-4.41,1.64,1.64,0,0,1,.856-3.164,8.413,8.413,0,0,1,6.285,7.381,1.64,1.64,0,0,1-1.541,1.713Zm0,0" transform="translate(-241.618 -126.26)"/>
  </g>
</svg>
