<svg xmlns="http://www.w3.org/2000/svg" width="82.889" height="67.989" viewBox="0 0 82.889 67.989">
  <g id="_029-wifi" data-name="029-wifi" transform="translate(0 0.001)">
    <path id="Path_85" data-name="Path 85" d="M6.858,25.811a1.623,1.623,0,0,1-1.145-.472L.888,20.514a3.03,3.03,0,0,1,.051-4.338,58.8,58.8,0,0,1,81.011,0A3.03,3.03,0,0,1,82,20.514l-3.855,3.837a3.019,3.019,0,0,1-4.241.056,47.3,47.3,0,0,0-65.908.932,1.618,1.618,0,0,1-1.143.472ZM3.326,18.37l3.555,3.555a50.537,50.537,0,0,1,69.116,0l3.555-3.555a55.562,55.562,0,0,0-76.224,0Zm0,0" transform="translate(0.001 0)"/>
    <path id="Path_86" data-name="Path 86" d="M124.829,122.425a3.012,3.012,0,0,1-2.044-.8,30.606,30.606,0,0,0-15.616-7.682,1.619,1.619,0,1,1,.543-3.192,33.842,33.842,0,0,1,17.114,8.353l3.555-3.555a39.035,39.035,0,0,0-52.845,0l3.555,3.555a34.014,34.014,0,0,1,14.859-7.888,1.619,1.619,0,1,1,.762,3.147,30.762,30.762,0,0,0-13.579,7.263,3.019,3.019,0,0,1-4.19-.091L73.1,117.689a3,3,0,0,1-.889-2.2,3.047,3.047,0,0,1,.97-2.171,42.276,42.276,0,0,1,57.561,0,3.047,3.047,0,0,1,.97,2.171,3,3,0,0,1-.889,2.2l-3.847,3.847a3.027,3.027,0,0,1-2.146.891Zm0,0" transform="translate(-60.518 -85.496)"/>
    <path id="Path_87" data-name="Path 87" d="M173.679,219.62a3.047,3.047,0,0,1-1.973-.731,14.247,14.247,0,0,0-18.414,0,3.009,3.009,0,0,1-4.1-.155l-3.863-3.86a3.03,3.03,0,0,1,.127-4.409,25.748,25.748,0,0,1,34.083,0,3.027,3.027,0,0,1,.127,4.409l-3.863,3.86a3,3,0,0,1-2.126.886Zm-11.174-7.344a17.489,17.489,0,0,1,11.174,4.025l3.555-3.555a22.51,22.51,0,0,0-29.459,0l3.555,3.555a17.484,17.484,0,0,1,11.166-4.025Zm0,0" transform="translate(-121.057 -170.994)"/>
    <path id="Path_88" data-name="Path 88" d="M208.278,324.475a9.224,9.224,0,1,1,9.226-9.224A9.224,9.224,0,0,1,208.278,324.475Zm0-15.212a2.472,2.472,0,1,0,0-.005Zm0,0" transform="translate(-166.83 -256.487)"/>
    <path id="Path_89" data-name="Path 89" d="M241.506,156.191a1.619,1.619,0,0,1,0-3.238h0a1.619,1.619,0,1,1,0,3.238Zm0,0" transform="translate(-201.054 -128.193)"/>
  </g>
</svg>
