<svg id="google_plus" xmlns="http://www.w3.org/2000/svg" width="62.727" height="62.728" viewBox="0 0 62.727 62.728">
  <path id="google_plus_bg" d="M1057.363,236.968A31.364,31.364,0,1,1,1026,268.331,31.36,31.36,0,0,1,1057.363,236.968Z" transform="translate(-1026 -236.968)" fill="#fff" fill-rule="evenodd"/>
  <path id="google_plus_icn" d="M1066.516,262.193v2.4h-2.07v-2.4h-2.415V260.14h2.415v-2.395h2.07v2.395h2.415v2.053Zm-17.877,11.893a12.545,12.545,0,1,1,8.844-21.506l-2.854,3.08a8.359,8.359,0,1,0,2.039,8.39h-7.2v-3.9h11.808v3.9A12.905,12.905,0,0,1,1048.64,274.086Z" transform="translate(-1020.318 -230.135)" fill="#868686" fill-rule="evenodd"/>
</svg>
