<svg id="instagram" xmlns="http://www.w3.org/2000/svg" width="62.727" height="62.728" viewBox="0 0 62.727 62.728">
  <path id="instagram_bg" d="M914.363,236.968A31.364,31.364,0,1,1,883,268.331,31.364,31.364,0,0,1,914.363,236.968Z" transform="translate(-883 -236.968)" fill="#fff" fill-rule="evenodd"/>
  <path id="instagram_icn" d="M918.008,272.106a7.389,7.389,0,0,1-5.3,1.979h-10.32a7.39,7.39,0,0,1-5.3-1.979A7.1,7.1,0,0,1,895,266.728V256.352a6.994,6.994,0,0,1,7.386-7.358H912.8a7.3,7.3,0,0,1,5.3,2.075,7.178,7.178,0,0,1,1.988,5.283v10.377A7.468,7.468,0,0,1,918.008,272.106Zm-1.054-15.293a4.893,4.893,0,0,0-1.214-3.381,4.644,4.644,0,0,0-3.469-1.3h-9.539a4.211,4.211,0,0,0-4.6,4.6v9.539a4.78,4.78,0,0,0,1.3,3.469,4.886,4.886,0,0,0,3.381,1.214h9.453a4.732,4.732,0,0,0,3.381-1.214,4.439,4.439,0,0,0,1.3-3.383Zm-3.136.022a1.567,1.567,0,1,1,1.568-1.568A1.547,1.547,0,0,1,913.818,256.835ZM907.5,267.812a6.273,6.273,0,0,1,0-12.545,6.273,6.273,0,1,1,0,12.545Zm.045-9.407a3.136,3.136,0,1,0,3.136,3.135A3.138,3.138,0,0,0,907.545,258.4Z" transform="translate(-876.182 -230.135)" fill="#868686" fill-rule="evenodd"/>
</svg>
