<svg xmlns="http://www.w3.org/2000/svg" width="62.727" height="62.728" viewBox="0 0 62.727 62.728">
  <g id="Group_63" data-name="Group 63" transform="translate(-1153 -6111.636)">
    <path id="twitter_bg" d="M844.363,236.968A31.364,31.364,0,1,1,813,268.331,31.364,31.364,0,0,1,844.363,236.968Z" transform="translate(340 5874.668)" fill="#fff" fill-rule="evenodd"/>
    <path id="twitter_icn" d="M847.953,253.317a8.717,8.717,0,0,1-2.581.734,4.64,4.64,0,0,0,1.979-2.576,8.848,8.848,0,0,1-2.859,1.131,4.435,4.435,0,0,0-3.295-1.468,4.49,4.49,0,0,0-3.2,1.375,4.671,4.671,0,0,0-1.308,3.279,4.922,4.922,0,0,0,.116,1.062,12.65,12.65,0,0,1-9.283-4.863,4.753,4.753,0,0,0,1.394,6.213,4.376,4.376,0,0,1-2.04-.582v.06a4.622,4.622,0,0,0,3.616,4.563,4.376,4.376,0,0,1-2.034.082,4.533,4.533,0,0,0,4.206,3.232,8.854,8.854,0,0,1-5.592,1.992,1.4,1.4,0,0,1-1.076-.066,12.417,12.417,0,0,0,6.9,2.1,12.7,12.7,0,0,0,9.12-3.887,13.227,13.227,0,0,0,3.7-9.354c0-.2,0-.4-.014-.6A9.3,9.3,0,0,0,847.953,253.317Z" transform="translate(347.386 5882.718)" fill="#868686" fill-rule="evenodd"/>
  </g>
</svg>
