<svg id="_004-fridge" data-name="004-fridge" xmlns="http://www.w3.org/2000/svg" width="16" height="25.606" viewBox="0 0 16 25.606">
  <path id="Path_73" data-name="Path 73" d="M14,0H2A2,2,0,0,0,0,2V21.6a2,2,0,0,0,2,2h.5v.5a1.5,1.5,0,0,0,1.5,1.5h.5a1,1,0,0,0,1-1v-1H10.5v1a1,1,0,0,0,1,1H12a1.5,1.5,0,0,0,1.5-1.5v-.5H14a2,2,0,0,0,2-2V2A2,2,0,0,0,14,0ZM4.5,24.605H4a.5.5,0,0,1-.5-.5v-.5h1v1Zm8-.5a.5.5,0,0,1-.5.5l-.5-1h1Zm2.5-2.5a1,1,0,0,1-1,1H2a1,1,0,0,1-1-1V9.6H15Zm0-13H1V2A1,1,0,0,1,2,1H14a1,1,0,0,1,1,1Zm0,0"/>
  <path id="Path_74" data-name="Path 74" d="M44.68,95h-3.5a1,1,0,0,1-1-1v-.5a1.5,1.5,0,0,1,1.5-1.5h2.5a1.5,1.5,0,0,1,1.5,1.5V94a1,1,0,0,1-1,1Zm-3-2a.5.5,0,0,0-.5.5V94h3.5v-.5a.5.5,0,0,0-.5-.5Zm0,0" transform="translate(-38.17 -87.398)"/>
  <path id="Path_75" data-name="Path 75" d="M44.181,215h-2.5a1.5,1.5,0,0,1-1.5-1.5V213a1,1,0,0,1,1-1h3.5a1,1,0,0,1,1,1v.5a1.5,1.5,0,0,1-1.5,1.5Zm-3-2v.5a.5.5,0,0,0,.5.5h2.5a.5.5,0,0,0,.5-.5V213Zm0,0" transform="translate(-38.17 -201.398)"/>
  <path id="Path_76" data-name="Path 76" d="M260.5,336.994a.5.5,0,0,1-.5-.5v-4a.5.5,0,0,1,1,0v4a.5.5,0,0,1-.5.5Zm0,0" transform="translate(-246.997 -315.389)"/>
  <path id="Path_77" data-name="Path 77" d="M260.517,293a.5.5,0,1,1,0-1h0a.5.5,0,0,1,0,1Zm0,0" transform="translate(-247.013 -277.397)"/>
</svg>
