<svg id="_026-bed" data-name="026-bed" xmlns="http://www.w3.org/2000/svg" width="33" height="24.24" viewBox="0 0 33 24.24">
  <path id="Path_2" data-name="Path 2" d="M28.752,11.353V3.224A3.227,3.227,0,0,0,25.529,0H7.478A3.227,3.227,0,0,0,4.255,3.224v8.129A4.518,4.518,0,0,0,0,15.859V23.6a.644.644,0,0,0,.644.644H7.166A.644.644,0,0,0,7.81,23.6v-.644a1.937,1.937,0,0,1,1.934-1.934H23.405a1.936,1.936,0,0,1,1.934,1.934V23.6a.644.644,0,0,0,.644.644h6.372A.644.644,0,0,0,33,23.6V15.859a4.518,4.518,0,0,0-4.255-4.505ZM5.544,3.224a1.937,1.937,0,0,1,1.934-1.93H25.529a1.937,1.937,0,0,1,1.937,1.93v8.122H25.529V9.412a2.588,2.588,0,0,0-2.578-2.578H21.017a2.588,2.588,0,0,0-2.578,2.578v1.934H14.57V9.412a2.588,2.588,0,0,0-2.58-2.578H10.058a2.588,2.588,0,0,0-2.58,2.578v1.934H5.544ZM24.238,9.408v1.938H19.727V9.412a1.294,1.294,0,0,1,1.294-1.294h1.93A1.294,1.294,0,0,1,24.24,9.412Zm-10.959,0v1.938H8.772V9.412a1.294,1.294,0,0,1,1.294-1.294H11.99a1.294,1.294,0,0,1,1.29,1.294ZM4.507,12.632H28.495a3.228,3.228,0,0,1,3.177,2.675,6.04,6.04,0,0,0-2.207.682,4.395,4.395,0,0,1-2.321.575,4.584,4.584,0,0,1-2.361-.575,5.86,5.86,0,0,0-2.925-.71,5.86,5.86,0,0,0-2.926.71,4.583,4.583,0,0,1-2.361.575,4.584,4.584,0,0,1-2.361-.575,5.86,5.86,0,0,0-2.925-.71,5.86,5.86,0,0,0-2.926.71A4.583,4.583,0,0,1,6,16.563a4.774,4.774,0,0,1-2.4-.575,6.576,6.576,0,0,0-2.262-.677A3.228,3.228,0,0,1,4.51,12.636Zm27.21,10.319H26.635a3.227,3.227,0,0,0-3.224-3.224H9.75a3.227,3.227,0,0,0-3.228,3.224H1.294V16.6a5.524,5.524,0,0,1,1.754.551A6.056,6.056,0,0,0,6,17.859a5.86,5.86,0,0,0,2.913-.71,4.577,4.577,0,0,1,2.361-.575,4.576,4.576,0,0,1,2.361.575,5.86,5.86,0,0,0,2.926.709,5.86,5.86,0,0,0,2.925-.709,4.577,4.577,0,0,1,2.361-.575,4.576,4.576,0,0,1,2.361.575,5.86,5.86,0,0,0,2.926.709,5.67,5.67,0,0,0,2.9-.719,4.757,4.757,0,0,1,1.677-.545Zm0,0"/>
  <path id="Path_3" data-name="Path 3" d="M231.8,48.294h-5.157a.647.647,0,0,1,0-1.294H231.8a.647.647,0,1,1,0,1.294Zm0,0" transform="translate(-211.43 -43.97)"/>
  <path id="Path_4" data-name="Path 4" d="M186.662,48.294a.647.647,0,1,1,0-1.294h0a.647.647,0,0,1,0,1.294Zm0,0" transform="translate(-174.025 -43.97)"/>
</svg>
