<svg xmlns="http://www.w3.org/2000/svg" width="96.666" height="96.425" viewBox="0 0 96.666 96.425">
  <path id="Path_149" data-name="Path 149" d="M147.792,433.254c-25.337-9.786-29.719-13.928-30.471-15.053v-2.921a31.806,31.806,0,0,0,6.5-11.971,10.193,10.193,0,0,0,3.387-6.231,10.077,10.077,0,0,0-1.595-7.05v-9.384c0-13.124-8.119-20.648-22.276-20.648-13.952,0-22.28,7.721-22.28,20.648v9.384a10.073,10.073,0,0,0-1.591,7.038,10.206,10.206,0,0,0,3.382,6.239,31.849,31.849,0,0,0,6.5,11.975v2.925c-.836,1.3-5.471,5.387-30.467,15.049A6.1,6.1,0,0,0,55,438.89v11.477a6.07,6.07,0,0,0,6.074,6.054h84.522a6.067,6.067,0,0,0,6.07-6.054V438.89A6.086,6.086,0,0,0,147.792,433.254Zm-1.828,17.113a.446.446,0,0,1-.37.486H61.072a.449.449,0,0,1-.374-.486l.273-11.943c28.052-10.834,32.9-15.45,33.95-18.825a2.749,2.749,0,0,0,.121-.807V414.2a2.769,2.769,0,0,0-.791-1.928,26.177,26.177,0,0,1-6.162-11.312A2.759,2.759,0,0,0,87,399.437a4.679,4.679,0,0,1-.868-6.781,2.763,2.763,0,0,0,.619-1.735V380.645c0-9.866,5.733-15.081,16.579-15.081,11,0,16.579,5.074,16.579,15.081v10.272a2.763,2.763,0,0,0,.615,1.731,4.7,4.7,0,0,1,1.032,3.664,4.633,4.633,0,0,1-1.9,3.125,2.808,2.808,0,0,0-1.085,1.531,26.143,26.143,0,0,1-6.162,11.308,2.765,2.765,0,0,0-.787,1.928v4.588a2.94,2.94,0,0,0,.121.812c1.057,3.378,5.905,8,34.219,19.287Z" transform="translate(-54.998 -359.996)" fill-rule="evenodd"/>
</svg>
