<!DOCTYPE svg PUBLIC "-//W3C//DTD SVG 1.1//EN" "http://www.w3.org/Graphics/SVG/1.1/DTD/svg11.dtd">
<!-- Uploaded to: SVG Repo, www.svgrepo.com, Transformed by: SVG Repo Mixer Tools -->
<svg fill="#D1AA65" height="800px" width="800px" version="1.1" id="Layer_1" xmlns="http://www.w3.org/2000/svg" xmlns:xlink="http://www.w3.org/1999/xlink" viewBox="0 0 512.001 512.001" xml:space="preserve">
<g id="SVGRepo_bgCarrier" stroke-width="0"/>
<g id="SVGRepo_iconCarrier"> <g> <g> <path d="M505.022,167.07c-0.09-0.093-0.167-0.195-0.259-0.287l-85.374-85.374c-0.158-0.158-0.331-0.293-0.494-0.447 c-0.33-0.31-0.659-0.621-1.007-0.911c-0.276-0.231-0.565-0.441-0.85-0.655c-0.282-0.213-0.56-0.427-0.852-0.627 c-0.339-0.232-0.688-0.442-1.036-0.652c-0.26-0.158-0.519-0.318-0.787-0.464c-0.367-0.201-0.741-0.383-1.116-0.562 c-0.275-0.132-0.549-0.265-0.83-0.386c-0.362-0.155-0.73-0.291-1.099-0.426c-0.315-0.115-0.63-0.231-0.951-0.333 c-0.339-0.106-0.682-0.197-1.023-0.287c-0.362-0.096-0.724-0.189-1.093-0.266c-0.316-0.067-0.633-0.117-0.951-0.169 c-0.395-0.065-0.79-0.129-1.19-0.172c-0.318-0.034-0.636-0.052-0.955-0.072c-0.393-0.025-0.785-0.052-1.183-0.056 c-0.364-0.004-0.727,0.013-1.091,0.027c-0.347,0.013-0.695,0.019-1.044,0.05c-0.454,0.038-0.905,0.105-1.357,0.172 c-0.219,0.033-0.436,0.043-0.655,0.083L340.377,85.82c-3.807,0.677-7.211,2.29-10.023,4.559c-3.83,2.478-6.945,6.133-8.688,10.726 l-26.927,70.965c-0.927-0.169-1.857-0.327-2.79-0.478c-4.887-30.221-19.064-58.076-41.133-80.147 c-27.758-27.761-64.663-43.048-103.92-43.048c-39.255,0-76.161,15.287-103.92,43.045c-57.301,57.3-57.301,150.537,0,207.839 c22.071,22.071,49.928,36.246,80.147,41.133c4.887,30.219,19.062,58.078,41.133,80.147c27.758,27.758,64.663,43.045,103.92,43.045 s76.162-15.287,103.92-43.045c27.758-27.758,43.045-64.663,43.045-103.92c0-8.072-0.656-16.041-1.925-23.854l72.592-27.545 c4.632-1.758,8.313-4.913,10.791-8.79c2.228-2.795,3.825-6.155,4.495-9.921l10.563-59.448 C513.014,179.443,510.274,172.028,505.022,167.07z M122.771,295.112c-18.184-4.362-34.871-13.64-48.428-27.197 c-40.006-40.005-40.006-105.1-0.002-145.106c19.381-19.38,45.147-30.054,72.555-30.054s53.175,10.672,72.555,30.052 c13.557,13.557,22.835,30.246,27.197,48.428c-31.084,4.536-59.775,18.87-82.39,41.486 C141.641,235.338,127.306,264.027,122.771,295.112z M195.623,244.088c14.385-14.385,32.292-23.959,51.774-27.947 c-3.986,19.482-13.562,37.389-27.947,51.774s-32.292,23.959-51.774,27.947C171.662,276.381,181.238,258.474,195.623,244.088z M340.731,389.197c-19.38,19.38-45.147,30.052-72.555,30.052c-27.407,0-53.173-10.672-72.555-30.052 c-13.557-13.557-22.835-30.246-27.197-48.428c31.084-4.536,59.775-18.87,82.39-41.486c22.617-22.615,36.952-51.306,41.486-82.39 c18.184,4.362,34.871,13.64,48.428,27.197c19.38,19.38,30.052,45.147,30.052,72.555 C370.785,344.05,360.111,369.816,340.731,389.197z M399.52,250.541c-6.966-13.807-16.17-26.564-27.423-37.818 c-10.596-10.596-22.526-19.367-35.409-26.173l9.683-25.519l79.508,79.508L399.52,250.541z M461.86,213.79l-88.738-88.738 l23.078-4.102l69.76,69.76L461.86,213.79z"/> </g> </g> </g>
</svg>